# xmcd
#
# Track frame offsets:
#	150
#	21717
#	41965
#	69035
#	89940
#	108104
#	128719
#	151610
#	172297
#	193637
#	216880
#	236840
#	255435
#	280130
#	300369
#
# Disc length: 4331 seconds
#
# Revision: 1
# Processed by: cddbd v1.5.1PL0 Copyright (c) Steve Scherf et al.
# Submitted via: CDex 1.50Beta5
#
DISCID=d310e90f
DTITLE=久保田 利伸 - THE BADDEST
DYEAR=1900
DGENRE=Pop
TTITLE0=LA・LA・LA LOVESONG
TTITLE1=the Sound of Carnival
TTITLE2=Cymbals
TTITLE3=Candy Rain
TTITLE4=SOUL BANGIN'
TTITLE5=AHHHHH!
TTITLE6=What's The Wonder?
TTITLE7=君はなにを見てる
TTITLE8=Always Remain
TTITLE9=Summer Eyes
TTITLE10=Never Turn Back
TTITLE11=Messengers' Rhyme
TTITLE12=ポリ リズム
TTITLE13=夜に抱かれて
TTITLE14=Free your soul
EXTD=
EXTT0=
EXTT1=
EXTT2=
EXTT3=
EXTT4=
EXTT5=
EXTT6=
EXTT7=
EXTT8=
EXTT9=
EXTT10=
EXTT11=
EXTT12=
EXTT13=
EXTT14=
PLAYORDER=
